<mxfile host="app.diagrams.net" agent="Mozilla/5.0 (Windows NT 10.0; Win64; x64) AppleWebKit/537.36 (KHTML, like Gecko) Chrome/139.0.0.0 Safari/537.36" version="28.2.0">
  <diagram name="Page-1" id="noNkKYNJNgzh6yGfdLXx">
    <mxGraphModel dx="1042" dy="527" grid="1" gridSize="10" guides="1" tooltips="1" connect="1" arrows="1" fold="1" page="1" pageScale="1" pageWidth="850" pageHeight="1100" math="0" shadow="0">
      <root>
        <mxCell id="0" />
        <mxCell id="1" parent="0" />
        <mxCell id="8ftp6PIijyVIsgyaWi0C-1" value="" style="ellipse;whiteSpace=wrap;html=1;" vertex="1" parent="1">
          <mxGeometry x="355" y="140" width="125" height="80" as="geometry" />
        </mxCell>
        <mxCell id="8ftp6PIijyVIsgyaWi0C-2" value="" style="rhombus;whiteSpace=wrap;html=1;" vertex="1" parent="1">
          <mxGeometry x="360" y="310" width="110" height="80" as="geometry" />
        </mxCell>
        <mxCell id="8ftp6PIijyVIsgyaWi0C-3" value="" style="shape=parallelogram;perimeter=parallelogramPerimeter;whiteSpace=wrap;html=1;fixedSize=1;" vertex="1" parent="1">
          <mxGeometry x="610" y="320" width="120" height="60" as="geometry" />
        </mxCell>
        <mxCell id="8ftp6PIijyVIsgyaWi0C-4" value="" style="shape=parallelogram;perimeter=parallelogramPerimeter;whiteSpace=wrap;html=1;fixedSize=1;" vertex="1" parent="1">
          <mxGeometry x="350" y="480" width="130" height="60" as="geometry" />
        </mxCell>
        <mxCell id="8ftp6PIijyVIsgyaWi0C-5" value="" style="shape=parallelogram;perimeter=parallelogramPerimeter;whiteSpace=wrap;html=1;fixedSize=1;" vertex="1" parent="1">
          <mxGeometry x="100" y="480" width="140" height="60" as="geometry" />
        </mxCell>
        <mxCell id="8ftp6PIijyVIsgyaWi0C-6" value="" style="shape=parallelogram;perimeter=parallelogramPerimeter;whiteSpace=wrap;html=1;fixedSize=1;" vertex="1" parent="1">
          <mxGeometry x="570" y="480" width="120" height="60" as="geometry" />
        </mxCell>
        <mxCell id="8ftp6PIijyVIsgyaWi0C-7" value="" style="rhombus;whiteSpace=wrap;html=1;" vertex="1" parent="1">
          <mxGeometry x="370" y="600" width="90" height="100" as="geometry" />
        </mxCell>
        <mxCell id="8ftp6PIijyVIsgyaWi0C-8" style="edgeStyle=orthogonalEdgeStyle;rounded=0;orthogonalLoop=1;jettySize=auto;html=1;exitX=0.5;exitY=1;exitDx=0;exitDy=0;" edge="1" parent="1" source="8ftp6PIijyVIsgyaWi0C-7" target="8ftp6PIijyVIsgyaWi0C-7">
          <mxGeometry relative="1" as="geometry" />
        </mxCell>
        <mxCell id="8ftp6PIijyVIsgyaWi0C-19" value="" style="endArrow=classic;html=1;rounded=0;entryX=0.5;entryY=0;entryDx=0;entryDy=0;" edge="1" parent="1" source="8ftp6PIijyVIsgyaWi0C-2" target="8ftp6PIijyVIsgyaWi0C-4">
          <mxGeometry width="50" height="50" relative="1" as="geometry">
            <mxPoint x="400" y="480" as="sourcePoint" />
            <mxPoint x="450" y="430" as="targetPoint" />
          </mxGeometry>
        </mxCell>
        <mxCell id="8ftp6PIijyVIsgyaWi0C-20" value="" style="endArrow=classic;html=1;rounded=0;entryX=0.5;entryY=0;entryDx=0;entryDy=0;exitX=0.5;exitY=1;exitDx=0;exitDy=0;" edge="1" parent="1" source="8ftp6PIijyVIsgyaWi0C-1">
          <mxGeometry width="50" height="50" relative="1" as="geometry">
            <mxPoint x="425" y="219.99999999999997" as="sourcePoint" />
            <mxPoint x="415" y="309.6" as="targetPoint" />
          </mxGeometry>
        </mxCell>
        <mxCell id="8ftp6PIijyVIsgyaWi0C-21" value="" style="endArrow=classic;html=1;rounded=0;entryX=0.5;entryY=0;entryDx=0;entryDy=0;exitX=0.5;exitY=1;exitDx=0;exitDy=0;" edge="1" parent="1" source="8ftp6PIijyVIsgyaWi0C-4" target="8ftp6PIijyVIsgyaWi0C-7">
          <mxGeometry width="50" height="50" relative="1" as="geometry">
            <mxPoint x="414" y="580" as="sourcePoint" />
            <mxPoint x="410" y="671" as="targetPoint" />
          </mxGeometry>
        </mxCell>
        <mxCell id="8ftp6PIijyVIsgyaWi0C-22" value="" style="endArrow=classic;html=1;rounded=0;entryX=0;entryY=0.5;entryDx=0;entryDy=0;" edge="1" parent="1" target="8ftp6PIijyVIsgyaWi0C-3">
          <mxGeometry width="50" height="50" relative="1" as="geometry">
            <mxPoint x="470" y="350" as="sourcePoint" />
            <mxPoint x="570" y="290" as="targetPoint" />
            <Array as="points" />
          </mxGeometry>
        </mxCell>
        <mxCell id="8ftp6PIijyVIsgyaWi0C-23" value="" style="endArrow=classic;html=1;rounded=0;entryX=0;entryY=0.5;entryDx=0;entryDy=0;" edge="1" parent="1" target="8ftp6PIijyVIsgyaWi0C-6">
          <mxGeometry width="50" height="50" relative="1" as="geometry">
            <mxPoint x="470" y="509.5" as="sourcePoint" />
            <mxPoint x="560" y="510" as="targetPoint" />
            <Array as="points" />
          </mxGeometry>
        </mxCell>
        <mxCell id="8ftp6PIijyVIsgyaWi0C-26" value="" style="endArrow=classic;html=1;rounded=0;exitX=0;exitY=0.25;exitDx=0;exitDy=0;" edge="1" parent="1">
          <mxGeometry width="50" height="50" relative="1" as="geometry">
            <mxPoint x="359.9985714285713" y="509.67428571428576" as="sourcePoint" />
            <mxPoint x="226.37927835051556" y="510.5321649484535" as="targetPoint" />
            <Array as="points">
              <mxPoint x="296.07" y="509.46" />
            </Array>
          </mxGeometry>
        </mxCell>
      </root>
    </mxGraphModel>
  </diagram>
</mxfile>
